<svg width="16" height="19" viewBox="0 0 16 19"  xmlns="http://www.w3.org/2000/svg">
<path d="M4.5 5.45312C4.5 5.69922 4.67578 5.875 4.92188 5.875H6.32812C6.53906 5.875 6.75 5.69922 6.75 5.45312V4.04688C6.75 3.83594 6.53906 3.625 6.32812 3.625H4.92188C4.67578 3.625 4.5 3.83594 4.5 4.04688V5.45312ZM9.42188 5.875H10.8281C11.0391 5.875 11.25 5.69922 11.25 5.45312V4.04688C11.25 3.83594 11.0391 3.625 10.8281 3.625H9.42188C9.17578 3.625 9 3.83594 9 4.04688V5.45312C9 5.69922 9.17578 5.875 9.42188 5.875ZM4.92188 9.25H6.32812C6.53906 9.25 6.75 9.07422 6.75 8.82812V7.42188C6.75 7.21094 6.53906 7 6.32812 7H4.92188C4.67578 7 4.5 7.21094 4.5 7.42188V8.82812C4.5 9.07422 4.67578 9.25 4.92188 9.25ZM9.42188 9.25H10.8281C11.0391 9.25 11.25 9.07422 11.25 8.82812V7.42188C11.25 7.21094 11.0391 7 10.8281 7H9.42188C9.17578 7 9 7.21094 9 7.42188V8.82812C9 9.07422 9.17578 9.25 9.42188 9.25ZM6.75 12.2031V10.7969C6.75 10.5859 6.53906 10.375 6.32812 10.375H4.92188C4.67578 10.375 4.5 10.5859 4.5 10.7969V12.2031C4.5 12.4492 4.67578 12.625 4.92188 12.625H6.32812C6.53906 12.625 6.75 12.4492 6.75 12.2031ZM9.42188 12.625H10.8281C11.0391 12.625 11.25 12.4492 11.25 12.2031V10.7969C11.25 10.5859 11.0391 10.375 10.8281 10.375H9.42188C9.17578 10.375 9 10.5859 9 10.7969V12.2031C9 12.4492 9.17578 12.625 9.42188 12.625ZM15.75 16.9844C15.75 16.7734 15.5391 16.5625 15.3281 16.5625H14.625V1.09375C14.625 0.636719 14.2383 0.25 13.7812 0.25H1.93359C1.47656 0.25 1.08984 0.636719 1.08984 1.09375V16.5625H0.421875C0.175781 16.5625 0 16.7734 0 16.9844V18.25H15.75V16.9844ZM2.77734 16.5273L2.8125 1.9375L12.9375 1.97266V16.5273H9V14.1719C9 13.9609 8.78906 13.75 8.57812 13.75H7.17188C6.92578 13.75 6.75 13.9609 6.75 14.1719V16.5273H2.77734Z" />
</svg>
