<svg width="23" height="19" viewBox="0 0 23 19"  xmlns="http://www.w3.org/2000/svg">
<path d="M3.65625 9.8125H10.4062V11.5H12.0938V9.8125H18.8438V11.5H20.5312V9.49609C20.5312 8.75781 19.8984 8.125 19.1602 8.125H12.0938V5.875H13.5C14.0977 5.875 14.625 5.38281 14.625 4.75V1.375C14.625 0.777344 14.0977 0.25 13.5 0.25H9C8.36719 0.25 7.875 0.777344 7.875 1.375V4.75C7.875 5.06641 7.98047 5.34766 8.19141 5.55859C8.40234 5.76953 8.68359 5.875 9 5.875H10.4062V8.125H3.30469C2.56641 8.125 1.96875 8.75781 1.96875 9.49609V11.5H3.65625V9.8125ZM9.5625 4.1875V1.9375H12.9375V4.1875H9.5625ZM21.375 12.625H18C17.3672 12.625 16.875 13.1523 16.875 13.75V17.125C16.875 17.7578 17.3672 18.25 18 18.25H21.375C21.9727 18.25 22.5 17.7578 22.5 17.125V13.75C22.5 13.1523 21.9727 12.625 21.375 12.625ZM20.8125 16.5625H18.5625V14.3125H20.8125V16.5625ZM12.9375 12.625H9.5625C8.92969 12.625 8.4375 13.1523 8.4375 13.75V17.125C8.4375 17.7578 8.92969 18.25 9.5625 18.25H12.9375C13.5352 18.25 14.0625 17.7578 14.0625 17.125V13.75C14.0625 13.1523 13.5352 12.625 12.9375 12.625ZM12.375 16.5625H10.125V14.3125H12.375V16.5625ZM4.5 12.625H1.125C0.492188 12.625 0 13.1523 0 13.75V17.125C0 17.7578 0.492188 18.25 1.125 18.25H4.5C5.09766 18.25 5.625 17.7578 5.625 17.125V13.75C5.625 13.1523 5.09766 12.625 4.5 12.625ZM3.9375 16.5625H1.6875V14.3125H3.9375V16.5625Z" />
</svg>
