<svg width="18" height="18" viewBox="0 0 18 18"  xmlns="http://www.w3.org/2000/svg">
    <path d="M12.1992 4.82031L7.13672 7.14062C6.89062 7.28125 6.71484 7.45703 6.57422 7.70312L4.25391 12.7656C4.00781 13.3633 4.60547 13.9609 5.20312 13.7148L10.2656 11.3945C10.5117 11.2539 10.6875 11.0781 10.8281 10.832L13.1484 5.76953C13.3945 5.17188 12.7969 4.57422 12.1992 4.82031ZM9.49219 10.0586C9.07031 10.5156 8.33203 10.5156 7.91016 10.0586C7.45312 9.63672 7.45312 8.89844 7.91016 8.47656C8.33203 8.01953 9.07031 8.01953 9.49219 8.47656C9.94922 8.89844 9.94922 9.63672 9.49219 10.0586ZM8.71875 0.53125C3.90234 0.53125 0 4.46875 0 9.25C0 14.0664 3.90234 17.9688 8.71875 17.9688C13.5 17.9688 17.4375 14.0664 17.4375 9.25C17.4375 4.46875 13.5 0.53125 8.71875 0.53125ZM8.71875 16.2812C4.81641 16.2812 1.6875 13.1523 1.6875 9.25C1.6875 5.38281 4.81641 2.21875 8.71875 2.21875C12.5859 2.21875 15.75 5.38281 15.75 9.25C15.75 13.1523 12.5859 16.2812 8.71875 16.2812Z" />
</svg>
