<svg width="18" height="17" viewBox="0 0 18 17"  xmlns="http://www.w3.org/2000/svg">
<path d="M13.4375 0.375H4.0625C3.86719 0.375 3.75 0.53125 3.75 0.6875V1.3125C3.75 1.50781 3.86719 1.625 4.0625 1.625H13.4375C13.5938 1.625 13.75 1.50781 13.75 1.3125V0.6875C13.75 0.53125 13.5938 0.375 13.4375 0.375ZM17.1875 15.375H0.3125C0.117188 15.375 0 15.5312 0 15.6875V16.3125C0 16.5078 0.117188 16.625 0.3125 16.625H17.1875C17.3438 16.625 17.5 16.5078 17.5 16.3125V15.6875C17.5 15.5312 17.3438 15.375 17.1875 15.375ZM13.4375 10.375H4.0625C3.86719 10.375 3.75 10.5312 3.75 10.6875V11.3125C3.75 11.5078 3.86719 11.625 4.0625 11.625H13.4375C13.5938 11.625 13.75 11.5078 13.75 11.3125V10.6875C13.75 10.5312 13.5938 10.375 13.4375 10.375ZM17.1875 5.375H0.3125C0.117188 5.375 0 5.53125 0 5.6875V6.3125C0 6.50781 0.117188 6.625 0.3125 6.625H17.1875C17.3438 6.625 17.5 6.50781 17.5 6.3125V5.6875C17.5 5.53125 17.3438 5.375 17.1875 5.375Z"/>
</svg>
