<svg width="18" height="21" viewBox="0 0 18 21"  xmlns="http://www.w3.org/2000/svg">
<path fill="currentColor" d="M6.25 7.0625V5.1875C6.25 4.67969 5.82031 4.25 5.3125 4.25H3.75V0.8125C3.75 0.65625 3.59375 0.5 3.4375 0.5H2.8125C2.61719 0.5 2.5 0.65625 2.5 0.8125V4.25H0.9375C0.390625 4.25 0 4.67969 0 5.1875V7.0625C0 7.60938 0.390625 8 0.9375 8H2.5V20.1875C2.5 20.3828 2.61719 20.5 2.8125 20.5H3.4375C3.59375 20.5 3.75 20.3828 3.75 20.1875V8H5.3125C5.82031 8 6.25 7.60938 6.25 7.0625ZM5 6.75H1.25V5.5H5V6.75ZM10.9375 13H9.375V0.8125C9.375 0.65625 9.21875 0.5 9.0625 0.5H8.4375C8.24219 0.5 8.125 0.65625 8.125 0.8125V13H6.5625C6.01562 13 5.625 13.4297 5.625 13.9375V15.8125C5.625 16.3594 6.01562 16.75 6.5625 16.75H8.125V20.1875C8.125 20.3828 8.24219 20.5 8.4375 20.5H9.0625C9.21875 20.5 9.375 20.3828 9.375 20.1875V16.75H10.9375C11.4453 16.75 11.875 16.3594 11.875 15.8125V13.9375C11.875 13.4297 11.4453 13 10.9375 13ZM10.625 15.5H6.875V14.25H10.625V15.5ZM16.5625 6.75H15V0.8125C15 0.65625 14.8438 0.5 14.6875 0.5H14.0625C13.8672 0.5 13.75 0.65625 13.75 0.8125V6.75H12.1875C11.6406 6.75 11.25 7.17969 11.25 7.6875V9.5625C11.25 10.1094 11.6406 10.5 12.1875 10.5H13.75V20.1875C13.75 20.3828 13.8672 20.5 14.0625 20.5H14.6875C14.8438 20.5 15 20.3828 15 20.1875V10.5H16.5625C17.0703 10.5 17.5 10.1094 17.5 9.5625V7.6875C17.5 7.17969 17.0703 6.75 16.5625 6.75ZM16.25 9.25H12.5V8H16.25V9.25Z"/>
</svg>
